inDegrees=yes
name=ik_data_2024_11_07_17_06
DataType=double
version=3
OpenSimVersion=4.5.1
endheader
time	pelvis_tilt	pelvis_list	pelvis_rotation	pelvis_tx	pelvis_ty	pelvis_tz	hip_flexion_r	hip_adduction_r	hip_rotation_r	knee_angle_r	knee_angle_r_beta	ankle_angle_r	subtalar_angle_r	mtp_angle_r	hip_flexion_l	hip_adduction_l	hip_rotation_l	knee_angle_l	knee_angle_l_beta	ankle_angle_l	subtalar_angle_l	mtp_angle_l	lumbar_extension	lumbar_bending	lumbar_rotation	arm_flex_r	arm_add_r	arm_rot_r	elbow_flex_r	pro_sup_r	wrist_flex_r	wrist_dev_r	arm_flex_l	arm_add_l	arm_rot_l	elbow_flex_l	pro_sup_l	wrist_flex_l	wrist_dev_l
0	0.0012121980280894	0.03773053214044879	-95.26804006049618	0	0.9399999999999999	0	0.3124242882529057	-0.0007901609803170767	-0.08735990726865051	0.5166882430330164	0.00901791104727079	-1.139578282037424	0	0	0.3066820964708248	-0.01769977713860229	-0.06236455770919111	0.5165676056260982	0.009015805527318997	-1.139578282037424	0	0	0	0	0	0	-0.7482802874076202	0	11.00305891709985	10.96368411662669	0	0	0	-0.7482802874076202	0	11.00305891709985	10.96368411662669	0	0
0.136	0.05793271232359598	-0.05769200318646359	-95.26893003210084	0	0.9399999999999999	0	0.2012031246297684	-0.06642605614904065	-0.08518372708577895	0.5084150930407881	0.008873517340395062	-1.148944849331616	0	0	0.2136589310352992	0.0508370774408605	-0.07595043976843766	0.5066206383491287	0.008842198197747746	-1.148944849331616	0	0	0	0	0	0	-0.7523305120132863	0	11.12076639718661	11.07360755297209	0	0	0	-0.7523305120132863	0	11.12076639718661	11.07360755297209	0	0
0.257	-0.0626148688137033	-0.1117724917791796	-95.25851416063091	0	0.9399999999999999	0	0.1203483921837301	0.03349055802570603	-0.08875247550779927	0.5142672150551305	0.008975656137773779	-1.156059830430175	0	0	0.158139845259105	-0.06846663689625535	-0.06200432979270305	0.5111455866554675	0.008921173444175898	-1.156059830430175	0	0	0	0	0	0	-0.7554158079710668	0	11.20939122461793	11.15632886632676	0	0	0	-0.7554158079710668	0	11.20939122461793	11.15632886632676	0	0
0.39	-0.08309445080761992	-0.04891898769095282	-95.2690073188096	0	0.9399999999999999	0	0.1556984312906303	-0.005499756302693839	-0.09278356196869393	0.5577333592939402	0.009734283467887773	-1.157741779943494	0	0	0.2059528195278686	-0.08874392997692514	-0.07333633355982067	0.5319779591081519	0.009284766934477008	-1.157741779943494	0	0	0	0	0	0	-0.7561543052941473	0	11.23022561677698	11.17577179571595	0	0	0	-0.7561543052941473	0	11.23022561677698	11.17577179571595	0	0
0.523	-0.02983072079925912	-0.02098839236282382	-95.27699794194919	0	0.9399999999999999	0	0.1505870950197319	-0.0218836448014811	-0.08038268218097205	0.5093389743148626	0.008889642110525182	-5.19803719978152	0	0	0.2399579480915341	-0.03901677856596839	-0.07469086119014973	0.5081367235184195	0.008868658875692525	-5.19803719978152	0	0	0	0	0	0	-5.377573466720016	0	64.58524896799854	49.06698033526533	0	0	0	-5.377573466720016	0	64.58524896799854	49.06698033526533	0	0
0.644	-0.01753158745808487	0.1098299825284411	-95.28778998675931	0	0.9399999999999999	0	0.3258184347287659	-0.01550020339279299	-0.06445184259894141	0.5134139521743282	0.008960763891118726	-5.196755684161482	0	0	0.3717800276764039	-0.03742681244964502	-0.08968066866323043	0.5062423499570984	0.008835595819784742	-5.196755684161482	0	0	0	0	0	0	-5.384734637048322	0	64.60053525091905	49.05077885634965	0	0	0	-5.384734637048322	0	64.60053525091905	49.05077885634965	0	0
0.794	0.005769002903292166	0.08377318533760922	-95.28676435180822	0	0.9399999999999999	0	0.3316665150295302	0.01557586471347295	-0.07348612098059618	0.5584567589305961	0.009746909173355149	-5.196654272709004	0	0	0.3576573770521718	-0.02473339871316945	-0.08906157439708209	0.5265130162589571	0.009189385688325238	-5.196654272709004	0	0	0	0	0	0	-5.385307433833749	0	64.60175259454526	49.04949507182187	0	0	0	-5.385307433833749	0	64.60175259454526	49.04949507182187	0	0
0.91	0.05766860610419811	0.06704012381301044	-95.2824630688057	0	0.9399999999999999	0	0.3528041111713217	0.02689857254511396	-0.07678135982656537	0.5519662971971324	0.009633629246131509	-5.196497989882057	0	0	0.3387840733875994	0.04466522774845936	-0.08686199100499326	0.5186728197928938	0.00905254844598921	-5.196497989882057	0	0	0	0	0	0	-5.386178167665	0	64.60361040294629	49.04752336367009	0	0	0	-5.386178167665	0	64.60361040294629	49.04752336367009	0	0
1.027	0.07967672124762763	0.02971825077721471	-95.2749348604008	0	0.9399999999999999	0	0.2088489348900328	-0.0211084946910533	-0.07897281530699533	0.5486914416762484	0.009576472234764969	-5.196268521066465	0	0	0.3033748411773321	0.06445059197191602	-0.08313708072882635	0.5134039921253005	0.008960590055469534	-5.196268521066465	0	0	0	0	0	0	-5.387463849528163	0	64.60635124640812	49.04462233441843	0	0	0	-5.387463849528163	0	64.60635124640812	49.04462233441843	0	0
1.169	0.1555647260575311	0.004159467231030191	-95.27674644196615	0	0.9399999999999999	0	0.1633997289622734	-0.06705991540348333	-0.08793604616352702	0.6054007946649119	0.01056623716109283	-5.196134777343219	0	0	0.2882772809267661	0.1346476548121107	-0.08269992061355884	0.5306983523280059	0.009262433583032616	-5.196134777343219	0	0	0	0	0	0	-5.388225880502226	0	64.6079671525403	49.04292503098283	0	0	0	-5.388225880502226	0	64.6079671525403	49.04292503098283	0	0
1.327	0.1833413577904517	0.06288406999995587	-95.28208020104994	0	0.9399999999999999	0	0.1921507407336176	-0.01934132409329738	-0.08463507157223514	0.5895102947674034	0.01028889561809349	-5.196030316633136	0	0	0.3486217556984545	0.1759819933283063	-0.08855532505774118	0.5212030743086495	0.009096709718202603	-5.196030316633136	0	0	0	0	0	0	-5.388818298922327	0	64.60922562292789	49.0416002774197	0	0	0	-5.388818298922327	0	64.60922562292789	49.0416002774197	0	0
1.436	0.1468149299823359	0.09109829211974328	-95.28484884372165	0	0.9399999999999999	0	0.2294489505968701	0.04652522349475473	-0.07722772367864872	0.5847667331834445	0.01020610485018229	-5.195902169829066	0	0	0.3710666319468834	0.1143190369728851	-0.09109219892173628	0.5243871965073554	0.009152283134355862	-5.195902169829066	0	0	0	0	0	0	-5.389601968263501	0	64.61086219467683	49.03993792760837	0	0	0	-5.389601968263501	0	64.61086219467683	49.03993792760837	0	0
1.552	0.1486505581097895	0.06951266411588719	-95.28452746012063	0	0.9399999999999999	0	0.2243669603539069	0.06071493673791593	-0.08357214143571214	0.6009559663466952	0.01048866027225407	-5.195838567020685	0	0	0.3715501185374875	0.1318097940562658	-0.09393939762189517	0.5454712507093965	0.009520269299850424	-5.195838567020685	0	0	0	0	0	0	-5.389976090142074	0	64.61165000472521	49.03912259785785	0	0	0	-5.389976090142074	0	64.61165000472521	49.03912259785785	0	0
1.736	0.1281418605819265	0.1473926832750398	-95.29056642777414	0	0.9399999999999999	0	0.2860829135378553	0.02280321313402509	-0.07469195781409495	0.6110331668537673	0.01066454060048612	-5.195689481639534	0	0	0.4297848818397916	0.1010765752590419	-0.09677101071528886	0.5177839565235846	0.009037034855339722	-5.195689481639534	0	0	0	0	0	0	-5.390815550129935	0	64.61343576854424	49.03723637030976	0	0	0	-5.390815550129935	0	64.61343576854424	49.03723637030976	0	0
1.857	0.06324130977296445	0.1185092436675451	-95.28725416124367	0	0.9399999999999999	0	0.3376166349807875	0.08552856728841522	-0.08358034012972541	0.6634426751288393	0.01157925907923734	-5.19545947823166	0	0	0.3891673052759401	0.03962279688761299	-0.09317681679014643	0.5159365328220847	0.00900479122906917	-5.19545947823166	0	0	0	0	0	0	-5.392113940151042	0	64.61619977847873	49.03432050420379	0	0	0	-5.392113940151042	0	64.61619977847873	49.03432050420379	0	0
1.97	0.1259703945877677	0.1271977070982671	-95.28609122279497	0	0.9399999999999999	0	0.3898240142373321	0.02293014008394659	-0.08351503564852833	0.63753656359	0.0111271121364957	-5.195256197155771	0	0	0.4051301262790193	0.1031355194737541	-0.09090056496850181	0.5154074343554996	0.008995556718760006	-5.195256197155771	0	0	0	0	0	0	-5.393274386929175	0	64.61866522362017	49.03173319310677	0	0	0	-5.393274386929175	0	64.61866522362017	49.03173319310677	0	0
2.101	0.02704339928408335	0.1093712794102443	-95.2869343380591	0	0.9399999999999999	0	0.4463052578916576	0.05974662926030775	-0.0856197128426221	0.6154208366233805	0.01074111988445609	-5.195103488812439	0	0	0.3758819132896893	0.002394112788809935	-0.09154767428538016	0.519793273327558	0.009072104049284707	-5.195103488812439	0	0	0	0	0	0	-5.394134388147663	0	64.6204955827474	49.02979991757639	0	0	0	-5.394134388147663	0	64.6204955827474	49.02979991757639	0	0
2.221	0.04503443663057789	0.1387965575662538	-95.28887384476454	0	0.9399999999999999	0	0.3798292832292668	0.04467868015233363	-0.08762682795704657	0.6299364107108587	0.01099446444509976	-5.195058880050592	0	0	0.4325039980261767	0.009634747343480516	-0.09421134735916305	0.5486378266210207	0.009575536475522606	-5.195058880050592	0	0	0	0	0	0	-5.394398445872053	0	64.62104937174267	49.02922829270705	0	0	0	-5.394398445872053	0	64.62104937174267	49.02922829270705	0	0
2.342	-0.02590808315984353	0.2390819811459621	-95.29331212330864	0	0.9399999999999999	0	0.4292317892904215	0.1315964361592382	-0.05905687541157745	0.5456623960165098	0.009523605414809287	-5.194840078284177	0	0	0.5066785385426638	-0.06154548506265854	-0.1020094983862092	0.5211114187218173	0.009095110026434533	-5.194840078284177	0	0	0	0	0	0	-5.395658304192018	0	64.62371534453202	49.02644112319057	0	0	0	-5.395658304192018	0	64.62371534453202	49.02644112319057	0	0
